<svg width="195" height="213" viewBox="0 0 195 213" fill="none" xmlns="http://www.w3.org/2000/svg">
<path d="M3.35852e-05 88.2247C0.0160336 67.1431 7.23202 48.02 19.7344 31.092C21.5925 28.5768 23.4752 26.3645 25.3824 24.4552C26.7904 23.0472 28.0597 22.0947 29.1904 21.5976C31.9168 20.4008 35.2288 20.5192 37.728 22.1672C40.2528 23.8312 41.9808 27.1464 41.248 30.132C40.8928 31.5848 40.0928 33.1464 39.2192 34.676C37.1733 38.2642 35.2042 41.8941 33.312 45.5656C23.856 63.9399 19.7856 84.3463 24.0224 104.81C26.3989 116.292 30.9664 126.859 37.7248 136.513C39.4272 138.941 38.3104 141.524 36.88 143.751C34.657 147.205 31.8688 150.316 28.5152 153.085C26.448 154.79 24.5483 154.651 22.816 152.669C16.2432 145.159 11.3856 136.801 7.59042 127.61C2.5195 115.335 -0.0106331 102.207 3.35852e-05 88.2247ZM19.0496 120.925C18.2944 119.255 17.584 117.345 16.9184 115.194C11.6736 98.2567 11.5936 80.0199 17.2672 63.1111C17.7088 61.7895 16.9376 60.5319 15.5456 60.4007C14.048 60.2567 13.3408 61.5399 12.9664 62.7975C6.90136 83.1708 7.70348 103.2 15.3728 122.884C15.9648 124.401 16.5536 125.3 18.304 124.852C20.3904 124.317 19.6768 122.308 19.0496 120.925Z" fill="#3EA3FE"/>
<path d="M19.0496 120.925C19.6768 122.308 20.3904 124.317 18.304 124.852C16.5536 125.3 15.9648 124.401 15.3728 122.884C7.70351 103.2 6.90138 83.1708 12.9664 62.7975C13.3408 61.5399 14.048 60.2567 15.5456 60.4007C16.9376 60.5319 17.7088 61.7895 17.2672 63.1111C11.5936 80.0199 11.6736 98.2567 16.9184 115.194C17.584 117.345 18.2944 119.255 19.0496 120.925Z" fill="#FFFEFD"/>
<path d="M37.8867 92.0401C37.8334 92.9467 37.9049 93.8502 38.1011 94.7505C39.2435 99.944 41.4611 104.757 43.4643 109.653C44.6718 112.607 45.8025 116.157 46.8563 120.302C49.7065 131.5 48.6985 142.3 43.8323 152.702C42.7358 155.047 41.7619 156.958 40.9107 158.437C34.8307 168.402 26.626 175.154 16.802 181.224C13.3684 183.345 11.2244 184.894 9.23399 187.857C7.76839 190.036 6.94599 192.468 6.76679 195.153C6.37213 201.076 8.47239 205.832 13.0676 209.422C18.5428 213.701 26.1588 213.451 32.2195 210.661C41.1731 206.536 48.1875 199.208 53.9827 191.413C62.9662 179.334 69.3523 165.997 73.1411 151.403C73.732 149.125 74.2216 146.839 74.6099 144.546C76.2973 135.091 76.1629 126.013 74.2067 117.314C71.9219 107.138 67.8878 97.2315 62.1043 87.5953L37.8867 92.0401Z" fill="url(#paint0_linear_10_648)"/>
<path d="M194.84 81.7105C194.725 87.1889 190.434 91.3873 185.08 91.5025C180.338 91.6049 176.949 87.9313 175.822 83.6273C175.129 80.9798 174.388 78.3452 173.598 75.7233C163.01 40.469 129.455 16.2546 92.3762 19.669C88.6962 20.0082 84.6845 20.6279 80.341 21.5282C77.1026 22.197 72.9394 21.6498 70.5298 19.0322C67.765 16.0274 67.2754 11.477 69.3522 7.97302C71.077 5.05783 74.1458 3.43543 77.4194 2.61943C87.2668 0.17037 97.2498 -0.561363 107.368 0.424236C115.275 1.19543 123.218 2.83383 130.674 5.58583C162.322 17.2786 186.878 43.2914 194.27 76.5905C194.684 78.4529 194.874 80.1596 194.84 81.7105Z" fill="#0FDFAF"/>
<path d="M62.1043 87.5953C61.9443 92.7825 59.8483 97.8225 54.8819 99.8993C49.378 102.197 43.0036 100.216 39.5732 95.3169C39.2724 94.8881 38.7102 93.7958 37.8868 92.0401C37.2638 89.4225 36.9705 86.7516 37.0068 84.0273C37.282 63.5857 50.0243 45.1282 67.5123 35.1762C79.5219 28.3378 94.0019 25.7746 107.656 27.2978C120.454 28.7271 131.799 33.5207 141.691 41.6786C154.13 51.9346 162.344 66.9777 162.808 83.2305C163.199 96.9883 159.065 109.097 150.408 119.557C141.919 129.81 130.178 136.165 116.994 137.88C115.272 138.104 113.145 138.23 110.613 138.258C107.223 138.296 103.303 138.294 98.8531 138.251C96.3955 138.229 94.0019 138.018 91.7811 137.186C83.0163 133.906 80.1203 123.099 87.3971 116.587C90.0883 114.178 92.8499 113.893 96.7571 113.938C101.192 113.987 105.627 114.024 110.063 114.05C112.872 114.065 114.998 113.953 116.44 113.714C130.968 111.307 140.159 96.9329 139.375 82.7473C138.591 68.5681 128.639 57.0322 115.496 52.2834C98.5395 46.1586 78.5587 50.597 67.8835 65.6177C63.3182 72.0391 61.3918 79.3649 62.1043 87.5953Z" fill="#0FDFAF"/>
<path d="M39.8244 95.1409L39.8243 95.1407C39.5436 94.7406 38.9976 93.6849 38.1779 91.9384C37.5659 89.3555 37.2777 86.7201 37.3135 84.0314C37.587 63.7158 50.2547 45.35 67.664 35.4428L67.6641 35.4428C79.6121 28.6394 94.026 26.086 107.622 27.6027C120.361 29.0254 131.65 33.7955 141.496 41.9152L141.691 41.6786L141.496 41.9153C153.875 52.1217 162.04 67.0852 162.502 83.2393C162.89 96.9238 158.781 108.96 150.172 119.361C141.733 129.553 130.063 135.87 116.954 137.576C115.249 137.798 113.135 137.923 110.61 137.951H110.61C107.222 137.989 103.305 137.987 98.856 137.944H98.8559C96.4105 137.922 94.0593 137.712 91.8887 136.898L91.8886 136.898C83.3084 133.687 80.521 123.152 87.6017 116.816L87.6017 116.816C90.2022 114.487 92.8614 114.2 96.7536 114.244H96.7537C101.189 114.293 105.625 114.331 110.061 114.356H110.061C112.875 114.371 115.022 114.26 116.49 114.016C131.204 111.579 140.472 97.0387 139.681 82.7304C138.889 68.4101 128.84 56.7789 115.6 51.9949L115.496 52.2834L115.6 51.9949C98.537 45.8315 78.4018 50.2883 67.6335 65.44C63.0272 71.919 61.0831 79.312 61.7972 87.6037C61.6348 92.722 59.5685 97.6069 54.7638 99.6162C49.3984 101.856 43.1757 99.9271 39.8244 95.1409Z" stroke="#CDE0F1" stroke-opacity="0.63" stroke-width="0.613505"/>
<path d="M128.011 168.44C148.303 161.038 164.779 144.786 173.49 125.138C174.712 122.376 175.944 119.214 177.787 117.266C180.69 114.2 185.483 113.602 189.103 115.819C192.248 117.749 194.047 121.64 193.621 125.266C193.457 126.682 193.042 128.204 192.376 129.832C183.888 150.636 170.245 166.986 151.448 178.882C138.856 186.85 124.514 191.246 109.752 192.734C97.2574 193.995 84.8521 192.759 72.5363 189.025C71.2211 188.625 69.9731 188.254 69.3075 187.022C67.8292 184.283 71.0291 178.792 72.3635 176.328C73.3075 174.594 74.8435 171.835 76.3603 170.738C77.1763 170.146 78.1619 170.28 79.2147 170.558C95.8184 174.955 112.084 174.249 128.011 168.44Z" fill="#3EA3FE"/>
<path d="M128.591 146.168C137.713 141.577 145.601 135.117 152.255 126.789C152.709 126.219 153.725 124.761 155.304 122.414C156.92 120.011 160.459 121.682 160.351 124.411C160.325 125.032 160.081 125.697 159.618 126.405C150.389 140.536 135.013 151.63 118.824 156.146C106.828 159.493 94.7293 159.801 82.5267 157.07C79.6659 156.43 79.1187 151.832 82.4179 151.634C83.0557 151.595 83.5741 151.619 83.9731 151.704C99.7042 155.066 114.577 153.221 128.591 146.168Z" fill="#3EA3FE"/>
<path d="M83.7354 78.4103C82.4202 78.9447 81.4218 80.8039 80.1162 81.3319C78.9386 81.8055 77.809 81.5431 76.913 80.6311C75.2778 78.9671 75.7002 76.3464 76.9194 74.5448C79.6362 70.532 83.9978 68.8552 88.7242 69.62C92.4138 70.2184 97.4058 73.5368 97.3642 77.9784C97.3386 80.8839 93.9818 82.9927 91.841 80.4296C89.633 77.7821 86.9311 77.109 83.7354 78.4103Z" fill="#3EA3FE"/>
<path d="M121.371 78.3815C118.462 77.0247 115.399 77.9688 113.361 80.3655C112.167 81.7703 110.081 81.8151 108.855 80.5223C107.744 79.349 107.516 77.8759 108.171 76.1032C109.838 71.5752 114.302 69.236 119.07 69.4888C123.556 69.7298 126.782 71.7586 128.747 75.5752C129.857 77.7352 129.23 81.1463 126.452 81.4919C124.292 81.7607 123.182 79.2263 121.371 78.3815Z" fill="#3EA3FE"/>
<path d="M119.899 93.8439C115.973 100.02 110.511 103.871 103.511 105.396C99.4601 106.276 94.273 106.282 90.3562 105.191C86.8554 104.218 83.9359 102.876 81.5978 101.166C79.3642 99.5335 79.8346 95.2775 83.2362 95.5399C84.9802 95.6743 86.4522 97.4215 88.1194 98.1287C96.7561 101.774 106.606 100.602 112.884 93.2295C114.183 91.6999 116.638 86.2183 119.828 89.6071C120.927 90.7762 120.95 92.1884 119.899 93.8439Z" fill="#3EA3FE"/>
<defs>
<linearGradient id="paint0_linear_10_648" x1="41.251" y1="87.5953" x2="41.251" y2="212.705" gradientUnits="userSpaceOnUse">
<stop offset="0.427083" stop-color="#434343"/>
</linearGradient>
</defs>
</svg>
