<svg width="344" height="278" viewBox="0 0 344 278" fill="none" xmlns="http://www.w3.org/2000/svg">
<g clip-path="url(#clip0_11_846)">
<path d="M195.845 245.211C193.468 241.882 190.25 239.446 186.204 238.535C182.677 237.74 179.049 237.875 175.463 237.903L130.12 238.253C126.237 238.283 122.513 241.647 122.694 245.679C122.873 249.677 125.957 253.137 130.12 253.105C143.402 253.003 156.685 252.9 169.967 252.798C173.099 252.774 176.232 252.717 179.363 252.728C180.067 252.73 180.767 252.767 181.469 252.775C181.64 252.777 181.762 252.775 181.849 252.772C181.871 252.778 181.889 252.784 181.918 252.792C182.284 252.893 182.66 252.962 183.029 253.058C182.9 253.062 183.268 253.291 183.453 253.369C183.478 253.419 183.532 253.508 183.623 253.645C183.749 253.882 184.123 254.601 184.138 254.578C184.7 255.998 185.163 257.455 185.525 258.938C186.388 262.209 186.577 262.892 186.701 265.961C186.858 269.838 190.005 273.572 194.128 273.388C198.017 273.213 201.722 270.119 201.554 265.961C201.27 258.955 200.041 251.086 195.845 245.211Z" fill="#E6E6E6"/>
<path d="M132.785 261.969C131.934 256.808 131.098 251.643 130.23 246.485C129.349 241.252 127.55 236.46 123.478 233.026C122.39 232.108 121.262 231.252 120.129 230.398C119.73 230.097 119.332 229.797 118.939 229.49C118.915 229.472 118.9 229.46 118.88 229.444C118.837 229.407 118.785 229.363 118.715 229.304C117.018 227.867 115.378 226.367 113.815 224.772C112.428 223.356 111.102 221.879 109.836 220.342C109.519 219.958 109.207 219.571 108.899 219.18C108.846 219.113 108.56 218.744 108.372 218.503C108.197 218.262 107.877 217.827 107.824 217.751C107.463 217.241 107.11 216.727 106.762 216.209C104.397 212.665 102.349 208.919 100.642 205.016C100.472 204.628 100.307 204.239 100.146 203.847C100.103 203.728 100.047 203.574 99.9723 203.37C99.6283 202.424 99.2849 201.479 98.9704 200.522C98.302 198.488 97.7274 196.425 97.2466 194.332C97.0089 193.298 96.7948 192.259 96.6045 191.215C96.5064 190.678 96.4146 190.14 96.3292 189.601C96.3151 189.511 96.2317 188.93 96.1826 188.601C96.1463 188.271 96.0788 187.686 96.0697 187.595C96.0153 187.052 95.967 186.508 95.9249 185.963C95.8299 184.738 95.7657 183.511 95.7323 182.281C95.6752 180.096 95.7143 177.911 95.8497 175.727C95.9267 174.499 96.0364 173.275 96.1715 172.053C96.1796 171.978 96.186 171.918 96.1919 171.864C96.2 171.81 96.2095 171.748 96.2209 171.67C96.3208 170.995 96.426 170.321 96.5436 169.648C96.989 167.096 97.5684 164.568 98.2792 162.077C98.6157 160.898 98.9813 159.729 99.3758 158.57C99.5517 158.055 99.7332 157.542 99.9202 157.032C99.908 157.065 100.469 155.632 100.476 155.584C102.702 150.326 106.342 145.532 106.347 139.559C106.35 135.514 102.929 131.64 98.9208 131.827C96.9224 131.902 95.0312 132.751 93.6459 134.193C92.2605 135.635 91.4892 137.559 91.4945 139.559C91.4945 139.649 91.494 139.727 91.4938 139.802C91.4564 139.928 91.4251 140.033 91.397 140.126C90.963 141.069 90.4313 141.965 89.9549 142.885C88.6504 145.402 87.537 148.002 86.4793 150.64C84.7478 154.936 83.4224 159.385 82.5205 163.928C80.5602 173.882 80.408 184.108 82.0713 194.116C84.9507 211.666 94.4461 228.467 107.647 239.759C108.793 240.739 109.966 241.686 111.151 242.614C111.641 242.998 112.135 243.375 112.632 243.749C112.867 243.926 113.84 244.693 113.412 244.322C114.332 245.107 114.719 245.502 114.955 246.081C114.99 246.214 115.036 246.395 115.1 246.643C115.266 247.295 115.424 247.946 115.556 248.607C116.705 254.386 117.503 260.263 118.463 266.079C119.123 270.076 124.043 272.677 127.599 271.479C131.737 270.085 133.492 266.251 132.785 261.969Z" fill="#E6E6E6"/>
<path d="M196.596 276.958C193.478 276.966 190.483 275.737 188.269 273.54C186.056 271.343 184.804 268.357 184.789 265.239V256.767C175.919 257.76 145.548 257.53 136.843 256.131V264.9C136.819 268.016 135.565 270.997 133.353 273.192C131.141 275.388 128.151 276.62 125.035 276.62C121.918 276.62 118.928 275.388 116.716 273.192C114.504 270.997 113.25 268.016 113.227 264.9V247.684C101.436 241.133 91.6059 231.555 84.7522 219.938C77.8986 208.32 74.2692 195.084 74.2387 181.595C74.2387 158.467 84.7205 136.892 102.996 122.401C114.879 112.948 129.317 107.263 144.455 106.076C146.51 105.915 148.577 105.833 150.6 105.833C157.725 105.833 189.875 106.934 197.941 109.255L216.334 91.0036C216.605 90.7317 216.95 90.5464 217.326 90.4714C217.702 90.3965 218.092 90.4352 218.446 90.5828C218.803 90.7247 219.108 90.9711 219.322 91.2897C219.537 91.6084 219.649 91.9843 219.646 92.3682V95.27L223.227 91.723C223.497 91.4507 223.842 91.2652 224.218 91.1901C224.594 91.115 224.984 91.1538 225.337 91.3014C225.694 91.4433 226 91.6897 226.214 92.0085C226.429 92.3273 226.542 92.7034 226.538 93.0875V125.515C235.768 133.835 242.802 144.304 247.018 155.993C251.234 167.682 252.501 180.231 250.708 192.527C248.915 204.823 244.116 216.487 236.736 226.485C229.357 236.483 219.626 244.506 208.404 249.843V265.239C208.389 268.357 207.137 271.343 204.924 273.54C202.71 275.737 199.715 276.966 196.596 276.958ZM185.717 255.715V265.239C185.74 268.109 186.897 270.853 188.935 272.874C190.972 274.896 193.726 276.03 196.596 276.03C199.466 276.03 202.22 274.896 204.258 272.874C206.296 270.853 207.452 268.109 207.476 265.239V249.257L207.741 249.131C220.332 243.156 231.021 233.809 238.621 222.127C248.305 207.219 252.332 189.337 249.974 171.717C247.616 154.097 239.028 137.904 225.764 126.067L225.61 125.929V93.0875C225.613 92.8879 225.555 92.6922 225.444 92.5266C225.333 92.361 225.173 92.2335 224.987 92.1612C224.802 92.0822 224.598 92.0608 224.401 92.1C224.203 92.1392 224.023 92.2371 223.882 92.3808L218.717 97.4959V92.3682C218.721 92.1686 218.663 91.9729 218.552 91.8072C218.44 91.6416 218.281 91.5141 218.095 91.4419C217.909 91.363 217.704 91.3418 217.507 91.3813C217.309 91.4208 217.128 91.519 216.988 91.6631L198.201 110.305L197.934 110.221C190.435 107.874 157.779 106.761 150.6 106.761C148.601 106.761 146.558 106.842 144.528 107.001C129.574 108.174 115.312 113.79 103.573 123.129C85.5206 137.442 75.1669 158.752 75.1669 181.595C75.1978 194.964 78.8077 208.082 85.6218 219.584C92.4358 231.086 102.205 240.554 113.916 247.005L114.155 247.137V264.9C114.179 267.77 115.336 270.514 117.374 272.534C119.411 274.555 122.165 275.689 125.035 275.689C127.905 275.689 130.658 274.555 132.696 272.534C134.734 270.514 135.89 267.77 135.914 264.9V255.02L136.464 255.124C144.288 256.596 177.231 256.828 185.192 255.783L185.717 255.715Z" fill="#3F3D56"/>
<path d="M133.672 55.2877L82.273 70.7344C80.6382 71.2276 79.266 72.3497 78.458 73.854C77.6499 75.3584 77.4721 77.122 77.9635 78.7574C78.4549 80.3928 79.5754 81.7662 81.0789 82.576C82.5823 83.3857 84.3457 83.5655 85.9816 83.0759L130.962 69.5554L131.904 69.2723C132.095 64.4167 133.412 59.6719 135.752 55.413C135.458 55.2808 135.144 55.1992 134.823 55.1716C134.436 55.1341 134.045 55.1735 133.672 55.2877Z" fill="#0FDFAF"/>
<path d="M85.0927 86.3692C84.4104 86.3675 83.7459 86.1515 83.193 85.7516C82.6402 85.3517 82.227 84.7882 82.0118 84.1407L78.7977 74.4419C78.6635 74.0369 78.6103 73.6094 78.6413 73.1839C78.6723 72.7583 78.7868 72.343 78.9783 71.9617C79.1698 71.5804 79.4346 71.2406 79.7574 70.9616C80.0803 70.6826 80.455 70.47 80.86 70.3358L122.694 56.4718C123.099 56.3375 123.526 56.2844 123.952 56.3153C124.377 56.3463 124.793 56.4607 125.174 56.6522C125.555 56.8436 125.895 57.1083 126.174 57.4311C126.453 57.7539 126.666 58.1285 126.8 58.5335L130.014 68.2322C130.282 69.0299 130.228 69.9004 129.865 70.6593C129.501 71.4181 128.857 72.0058 128.068 72.2978C128.029 72.3123 127.99 72.326 127.951 72.3388L86.1179 86.2024C85.7873 86.3126 85.4412 86.3689 85.0927 86.3692Z" fill="#434343"/>
<path d="M163.438 38.0634C154.995 38.0666 146.884 41.3551 140.823 47.2329C134.761 53.1107 131.225 61.1163 130.962 69.5555C130.952 69.885 130.948 70.2192 130.948 70.5534C130.948 76.9794 132.853 83.261 136.423 88.6039C139.993 93.9469 145.068 98.1112 151.004 100.57C156.941 103.029 163.474 103.673 169.776 102.419C176.079 101.166 181.868 98.0712 186.412 93.5274C190.956 88.9836 194.05 83.1944 195.304 76.8919C196.557 70.5895 195.914 64.0568 193.455 58.12C190.996 52.1832 186.831 47.109 181.488 43.5389C176.145 39.9689 169.864 38.0634 163.438 38.0634ZM163.438 102.115C155.07 102.106 147.047 98.7784 141.13 92.8613C135.213 86.9442 131.885 78.9215 131.876 70.5534C131.876 70.1218 131.885 69.6948 131.904 69.2724C132.155 63.0899 134.218 57.1177 137.837 52.0983C141.455 47.079 146.469 43.234 152.255 41.0414C158.041 38.8488 164.344 38.4054 170.38 39.7663C176.416 41.1272 181.919 44.2324 186.205 48.6957C190.49 53.159 193.369 58.7836 194.484 64.87C195.598 70.9564 194.899 77.2361 192.473 82.9283C190.047 88.6205 186.001 93.474 180.839 96.8854C175.677 100.297 169.625 102.115 163.438 102.115Z" fill="#3F3D56"/>
<path d="M190.822 70.5533C190.822 77.8161 187.937 84.7815 182.802 89.9171C177.666 95.0527 170.701 97.9378 163.438 97.9378C156.175 97.9378 149.21 95.0527 144.074 89.9171C138.939 84.7815 136.053 77.8161 136.053 70.5533C136.053 69.6854 136.095 68.8314 136.174 67.9866C136.834 60.9772 140.168 54.4913 145.484 49.8755C150.8 45.2598 157.69 42.8688 164.723 43.1991C171.755 43.5294 178.391 46.5556 183.251 51.6494C188.111 56.7431 190.822 63.513 190.822 70.5533Z" fill="#E6E6E6"/>
<path d="M171.593 72.3728C170.929 71.5001 170.056 70.8089 169.054 70.3631C167.818 69.8423 166.542 69.4232 165.239 69.1099V61.6557C167.243 61.9579 169.122 62.8148 170.665 64.1296L172.178 60.9038C171.307 60.1285 170.308 59.5112 169.226 59.0797C168.026 58.5938 166.766 58.2707 165.48 58.119V54.3408H161.976V58.1561C160.623 58.3081 159.317 58.7464 158.147 59.4418C157.089 60.0677 156.199 60.9404 155.552 61.9853C154.935 63.005 154.615 64.177 154.628 65.3689C154.568 66.6605 154.942 67.9351 155.691 68.9892C156.381 69.9018 157.291 70.6238 158.337 71.0871C159.592 71.6232 160.89 72.0533 162.217 72.3728V79.516C159.852 79.3376 157.599 78.4385 155.761 76.94L154.248 80.1704C155.276 81.0201 156.444 81.683 157.701 82.1291C159.078 82.6219 160.517 82.9218 161.976 83.0203V86.7659H165.48V82.9507C167.427 82.738 169.252 81.901 170.683 80.5649C171.313 79.9605 171.811 79.2316 172.145 78.4247C172.479 77.6177 172.642 76.7502 172.623 75.8771C172.682 74.6266 172.319 73.3927 171.593 72.3728ZM162.217 68.3208C161.364 68.062 160.57 67.636 159.882 67.0676C159.61 66.8253 159.395 66.5256 159.252 66.1902C159.109 65.8548 159.042 65.4918 159.056 65.1275C159.031 64.3008 159.335 63.4979 159.901 62.895C160.529 62.2625 161.339 61.8421 162.217 61.6929V68.3208ZM167.439 78.1978C166.847 78.8051 166.076 79.2068 165.239 79.3442V73.199C166.039 73.4136 166.787 73.7878 167.439 74.299C167.686 74.51 167.882 74.774 168.013 75.0713C168.144 75.3686 168.206 75.6916 168.195 76.0163C168.228 76.8129 167.957 77.5922 167.439 78.1978Z" fill="#0FDFAF"/>
<path d="M86.5845 125.677C85.867 125.676 85.1699 125.438 84.6014 125C84.0328 124.563 83.6245 123.95 83.4399 123.256L81.69 116.633C81.471 115.8 81.5911 114.915 82.024 114.171C82.4569 113.427 83.1672 112.885 83.9992 112.664L139.205 98.076C140.038 97.8586 140.923 97.98 141.667 98.4136C142.411 98.8473 142.952 99.5578 143.174 100.39L144.656 106.001L144.378 106.023C130.22 107.124 116.673 112.257 105.34 120.816L105.26 120.855L87.4088 125.57C87.1397 125.641 86.8627 125.677 86.5845 125.677Z" fill="#434343"/>
<path d="M77.4413 158.393C70.9654 157.436 64.7719 155.094 59.283 151.527C56.5637 149.761 54.0463 147.702 51.776 145.387C49.5352 143.102 47.3915 140.504 46.2816 137.46C45.2137 134.644 45.2687 131.525 46.4353 128.748C47.586 125.989 49.784 123.798 52.5475 122.656C55.3275 121.548 58.6864 121.429 61.3919 122.643C62.6812 123.208 63.7969 124.106 64.6244 125.245C65.0091 125.77 65.2939 126.361 65.4646 126.989C65.6231 127.559 65.6375 128.158 65.5066 128.734C65.3479 129.309 65.0681 129.844 64.686 130.302C64.3038 130.76 63.8281 131.131 63.2908 131.391C62.1082 131.997 60.8269 132.388 59.5071 132.545C58.1795 132.726 56.2726 132.89 55.2054 131.825C54.9857 131.614 54.8129 131.359 54.6983 131.077C54.618 130.861 54.5906 130.629 54.6182 130.4C54.6027 130.501 54.6826 130.181 54.6781 130.194C54.6612 130.241 54.5881 130.356 54.692 130.179C54.7245 130.121 54.7606 130.065 54.8002 130.011C54.7649 130.056 54.6874 130.132 54.8258 130.002C54.9401 129.877 55.0871 129.786 55.2501 129.74C55.3144 129.721 55.3796 129.706 55.444 129.689C55.6077 129.644 55.2808 129.691 55.4483 129.686C55.5129 129.684 55.5784 129.685 55.6428 129.682C55.8071 129.675 55.4807 129.638 55.6381 129.677C55.6993 129.693 55.7598 129.708 55.8201 129.727C55.951 129.768 55.7274 129.63 55.8161 129.733C55.9201 129.854 55.7069 129.616 55.8251 129.733C55.8839 129.79 55.9393 129.852 55.9911 129.916C56.196 130.118 56.4724 130.231 56.7604 130.231C57.0484 130.231 57.3248 130.118 57.5297 129.916C57.7277 129.708 57.8382 129.433 57.8382 129.146C57.8382 128.86 57.7277 128.584 57.5297 128.377C56.4569 127.047 54.3378 127.376 53.2525 128.5C51.8685 129.933 52.4165 132.205 53.7629 133.456C55.287 134.872 57.4456 134.97 59.4061 134.733C61.063 134.574 62.6776 134.118 64.1725 133.386C65.6578 132.656 66.8195 131.401 67.4326 129.864C67.7094 129.043 67.8088 128.174 67.7243 127.312C67.6398 126.45 67.3732 125.616 66.9423 124.866C65.2114 121.611 61.6271 119.943 58.0844 119.654C56.2604 119.511 54.4262 119.731 52.6879 120.302C50.9496 120.873 49.3417 121.782 47.9573 122.979C45.289 125.381 43.6459 128.717 43.3678 132.296C43.0585 136.007 44.4985 139.612 46.5979 142.607C48.7957 145.65 51.4184 148.362 54.3859 150.661C60.1875 155.293 66.9926 158.502 74.2569 160.033C75.1209 160.211 75.9896 160.364 76.8629 160.491C77.1408 160.558 77.4339 160.517 77.6825 160.376C77.9312 160.235 78.1167 160.004 78.2012 159.731C78.2758 159.453 78.2379 159.157 78.0957 158.906C77.9535 158.656 77.7184 158.471 77.4413 158.393Z" fill="#3F3D56"/>
<path d="M181.124 111.108C171.636 110.974 162.178 111.215 152.75 111.83C149.527 112.04 146.739 113.18 146.739 115.094C146.739 116.695 149.505 118.57 152.75 118.358C162.173 117.742 171.631 117.502 181.124 117.635C188.863 117.745 188.859 111.217 181.124 111.108Z" fill="#CCCCCC"/>
<path d="M167.101 117.312C166.075 117.312 141.988 117.274 141.988 113.947C141.988 110.62 166.075 110.581 167.101 110.581C168.126 110.581 192.214 110.62 192.214 113.947C192.214 117.274 168.126 117.312 167.101 117.312ZM142.93 113.947C143.589 114.955 152.443 116.384 167.101 116.384C181.759 116.384 190.612 114.955 191.272 113.947C190.613 112.938 181.759 111.51 167.101 111.51C152.443 111.51 143.589 112.938 142.93 113.947Z" fill="#3F3D56"/>
<path d="M243.524 204.78C248.856 204.632 255.492 204.447 260.605 200.712C262.127 199.555 263.378 198.078 264.27 196.386C265.161 194.694 265.672 192.828 265.766 190.917C265.871 187.968 264.805 185.393 262.766 183.67C260.095 181.414 256.196 180.885 251.994 182.12L256.348 150.303L253.152 149.865L248.034 187.269L250.703 186.045C253.797 184.626 258.044 183.903 260.683 186.134C261.331 186.717 261.836 187.442 262.159 188.252C262.481 189.062 262.613 189.935 262.543 190.804C262.464 192.226 262.081 193.614 261.418 194.874C260.755 196.134 259.829 197.237 258.702 198.107C254.723 201.013 249.434 201.388 243.434 201.556L243.524 204.78Z" fill="#3F3D56"/>
<path d="M234.687 153.047H217.313V156.273H234.687V153.047Z" fill="#3F3D56"/>
<path d="M94.4464 140.514C93.6731 140.511 92.9259 140.234 92.3387 139.73C91.7515 139.227 91.3627 138.531 91.2419 137.767L90.1815 130.999C90.049 130.148 90.2596 129.279 90.7671 128.583C91.2746 127.887 92.0375 127.421 92.8884 127.286L149.297 118.448C150.148 118.316 151.017 118.526 151.713 119.034C152.409 119.541 152.875 120.304 153.009 121.155L154.07 127.923C154.202 128.774 153.992 129.643 153.484 130.339C152.977 131.035 152.214 131.502 151.363 131.636L94.9547 140.474C94.7865 140.5 94.6166 140.514 94.4464 140.514Z" fill="#434343"/>
<path d="M71.1019 61.1996C84.1752 61.1996 94.7732 50.6016 94.7732 37.5283C94.7732 24.455 84.1752 13.8569 71.1019 13.8569C58.0286 13.8569 47.4305 24.455 47.4305 37.5283C47.4305 50.6016 58.0286 61.1996 71.1019 61.1996Z" fill="#0FDFAF"/>
<path d="M84.5042 43.6531C85.2607 43.3885 85.9518 42.965 86.531 42.411C86.9143 42.016 87.2065 41.542 87.3873 41.0223C87.568 40.5025 87.633 39.9495 87.5776 39.4019C87.5454 39.0117 87.4234 38.6342 87.2211 38.2989C87.0189 37.9636 86.7418 37.6797 86.4116 37.4692C85.5549 36.9424 84.4229 36.9623 83.2801 37.4921L83.1481 28.252L82.22 28.2652L82.375 39.1279L83.0816 38.6645C83.901 38.128 85.0782 37.7389 85.9252 38.2599C86.1347 38.3979 86.3096 38.5823 86.4362 38.7988C86.5628 39.0153 86.6378 39.2581 86.6553 39.5083C86.6943 39.9162 86.6451 40.3277 86.5108 40.7148C86.3766 41.102 86.1605 41.4556 85.8773 41.7518C84.871 42.7502 83.3816 43.0848 81.6818 43.3907L81.8463 44.3042C82.7499 44.167 83.6394 43.9491 84.5042 43.6531Z" fill="#434343"/>
<path d="M92.7067 27.6033L87.7634 28.3519L87.9024 29.2696L92.8456 28.521L92.7067 27.6033Z" fill="#434343"/>
<path d="M77.1036 29.9657L72.1604 30.7144L72.2993 31.6321L77.2426 30.8834L77.1036 29.9657Z" fill="#434343"/>
<path d="M86.745 140.1C85.8937 140.098 85.0631 139.837 84.3638 139.352C83.6645 138.866 83.1295 138.179 82.8302 137.382L66.5095 93.6745C64.5146 88.314 64.7277 82.3811 67.1018 77.1774C69.4759 71.9738 73.8172 67.9244 79.1732 65.9176L92.4439 60.9623C92.957 60.7694 93.5033 60.6799 94.0512 60.6989C94.599 60.7179 95.1378 60.8451 95.6363 61.0732C96.1336 61.2954 96.5817 61.6144 96.9543 62.0118C97.3269 62.4091 97.6165 62.8767 97.8064 63.3873L128.039 120.469C128.235 120.984 128.328 121.533 128.311 122.083C128.295 122.634 128.17 123.176 127.943 123.678C127.716 124.18 127.392 124.632 126.99 125.009C126.588 125.385 126.115 125.678 125.599 125.871L88.2048 139.835C87.738 140.01 87.2436 140.1 86.745 140.1Z" fill="#434343"/>
<path d="M88.4176 62.4656L118.415 102.58L98.117 62.8867C97.9494 62.4235 97.6921 61.9979 97.36 61.6342C97.0278 61.2705 96.6273 60.9758 96.1812 60.767C95.7352 60.5581 95.2523 60.4391 94.7603 60.4169C94.2683 60.3947 93.7767 60.4696 93.3136 60.6374L88.4176 62.4656Z" fill="#E6E6E6"/>
<path d="M135.914 92.9297L82.3543 89.4797C81.5101 89.4253 80.6848 89.2052 79.9257 88.8319C79.1665 88.4586 78.4883 87.9394 77.9298 87.304C77.3713 86.6685 76.9434 85.9293 76.6705 85.1286C76.3977 84.3278 76.2853 83.4811 76.3396 82.6369C76.394 81.7926 76.6141 80.9674 76.9875 80.2082C77.3608 79.4491 77.8799 78.7709 78.5154 78.2123C79.1508 77.6538 79.89 77.2259 80.6908 76.9531C81.4915 76.6803 82.3382 76.5678 83.1825 76.6222L136.742 80.072C137.138 80.0974 137.524 80.2005 137.88 80.3753C138.235 80.5501 138.553 80.7932 138.815 81.0908C139.076 81.3884 139.277 81.7346 139.404 82.1096C139.532 82.4846 139.585 82.8811 139.559 83.2765L139.119 90.1129C139.068 90.9114 138.701 91.6568 138.1 92.185C137.499 92.7132 136.713 92.9811 135.914 92.9297Z" fill="#0FDFAF"/>
<path d="M121.602 95.1415C121.532 95.1415 121.461 95.1392 121.39 95.1347L77.4091 92.3017C76.9833 92.2744 76.567 92.1634 76.1842 91.9751C75.8013 91.7869 75.4592 91.5251 75.1775 91.2046C74.8958 90.8842 74.68 90.5113 74.5424 90.1075C74.4048 89.7036 74.3481 89.2766 74.3756 88.8508L75.1276 77.1738C75.1551 76.748 75.2661 76.3318 75.4544 75.9489C75.6427 75.566 75.9046 75.224 76.2251 74.9423C76.5455 74.6606 76.9184 74.4449 77.3223 74.3073C77.7262 74.1697 78.1532 74.1131 78.579 74.1405L122.559 76.9732C123.419 77.0295 124.221 77.4245 124.79 78.0714C125.358 78.7184 125.647 79.5645 125.593 80.4241L124.841 92.1014C124.799 92.7271 124.578 93.3275 124.204 93.8306C123.83 94.3337 123.318 94.7182 122.731 94.9377C122.37 95.0727 121.988 95.1417 121.602 95.1415Z" fill="#434343"/>
<path d="M70.8305 21.7871C73.9446 19.1089 78.2209 21.5048 81.7921 21.0853C85.2087 20.6841 87.9066 17.6193 88.5958 14.3634C89.3998 10.5649 87.4282 6.75929 84.5222 4.39096C81.3393 1.79705 77.1181 1.05241 73.118 1.5323C68.5333 2.08231 64.3404 4.21939 60.5782 6.80429C56.9467 9.22207 53.6071 12.0519 50.6262 15.2374C47.9568 18.1855 45.6952 21.6995 44.973 25.6666C44.3167 29.2718 44.8179 33.267 46.9491 36.3211C48.0793 37.8865 49.5938 39.1342 51.3465 39.9439C53.174 40.8413 55.1235 41.4828 56.894 42.4974C59.5711 44.0316 62.173 47.2126 61.3344 50.5229C61.1546 51.2461 60.7998 51.9139 60.3012 52.4677C59.7021 53.1327 58.6216 52.2539 59.2222 51.5872C60.2771 50.4161 60.2356 48.8543 59.6734 47.4562C59.0049 45.8807 57.8211 44.579 56.316 43.7643C54.4627 42.7046 52.4165 42.0506 50.517 41.0854C48.6989 40.2037 47.1206 38.8958 45.9167 37.273C43.6432 34.1136 42.9632 30.0018 43.4788 26.1981C44.0367 22.0819 46.1516 18.3414 48.8028 15.2069C51.688 11.7957 55.2321 8.90826 58.8527 6.31424C62.7376 3.53084 67.0296 1.17767 71.7791 0.326562C75.8961 -0.411213 80.3587 0.043008 83.9588 2.28661C87.3194 4.38087 89.8963 7.9834 90.1526 12.0089C90.2446 13.8405 89.8469 15.6635 89.0004 17.2903C88.1539 18.9172 86.8893 20.2891 85.3365 21.2649C83.7433 22.2183 81.8909 22.6475 80.0406 22.4918C78.0627 22.3651 76.0828 21.7594 74.0921 21.9276C73.1913 21.9823 72.3329 22.3291 71.647 22.9155C70.9666 23.5007 70.1557 22.3675 70.8305 21.7871Z" fill="#434343"/>
<path d="M343.227 277.175H0.552637C0.406343 277.175 0.266189 277.116 0.162893 277.013C0.0595967 276.909 0.00158691 276.769 0.00158691 276.622C0.00158691 276.476 0.0595967 276.336 0.162893 276.232C0.266189 276.129 0.406343 276.07 0.552637 276.07H343.227C343.374 276.07 343.514 276.128 343.618 276.232C343.722 276.335 343.78 276.476 343.78 276.622C343.78 276.769 343.722 276.91 343.618 277.013C343.514 277.117 343.374 277.175 343.227 277.175Z" fill="#3F3D56"/>
</g>
<defs>
<clipPath id="clip0_11_846">
<rect width="343.78" height="277.175" fill="white"/>
</clipPath>
</defs>
</svg>
