<svg width="1035" height="347" viewBox="0 0 1035 347" fill="none" xmlns="http://www.w3.org/2000/svg">
<path d="M439.538 238.724C434.686 238.724 430.983 237.383 428.429 234.702C425.876 232.02 424.599 228.253 424.599 223.401V117.101C424.599 112.121 425.876 108.354 428.429 105.801C431.111 103.247 434.878 101.97 439.73 101.97H486.272C501.339 101.97 512.959 105.801 521.131 113.462C529.303 120.995 533.389 131.53 533.389 145.065C533.389 158.6 529.303 169.198 521.131 176.859C512.959 184.52 501.339 188.351 486.272 188.351H454.286V223.401C454.286 228.253 453.009 232.02 450.456 234.702C448.03 237.383 444.39 238.724 439.538 238.724ZM454.286 165.367H481.292C488.954 165.367 494.763 163.643 498.722 160.196C502.808 156.748 504.851 151.704 504.851 145.065C504.851 138.425 502.808 133.445 498.722 130.125C494.763 126.805 488.954 125.145 481.292 125.145H454.286V165.367ZM576.79 239.107C569.895 239.107 563.702 237.766 558.212 235.085C552.721 232.403 548.444 228.764 545.379 224.167C542.315 219.571 540.782 214.399 540.782 208.653C540.782 201.758 542.57 196.331 546.145 192.373C549.721 188.287 555.53 185.414 563.575 183.754C571.619 181.966 582.281 181.073 595.561 181.073H605.712V196.012H595.752C589.24 196.012 583.941 196.395 579.855 197.161C575.897 197.8 573.024 198.949 571.236 200.609C569.576 202.269 568.746 204.567 568.746 207.504C568.746 211.079 569.959 214.016 572.385 216.315C574.939 218.613 578.578 219.762 583.302 219.762C587.005 219.762 590.261 218.932 593.071 217.272C596.007 215.485 598.306 213.122 599.966 210.186C601.626 207.121 602.456 203.673 602.456 199.843V177.817C602.456 172.198 601.179 168.24 598.625 165.942C596.071 163.516 591.73 162.303 585.601 162.303C582.153 162.303 578.387 162.749 574.3 163.643C570.342 164.409 565.937 165.75 561.085 167.665C558.276 168.942 555.786 169.262 553.615 168.623C551.444 167.857 549.784 166.58 548.635 164.792C547.486 162.877 546.911 160.834 546.911 158.663C546.911 156.365 547.55 154.194 548.827 152.151C550.104 149.981 552.21 148.385 555.147 147.363C561.149 144.937 566.767 143.277 572.002 142.383C577.365 141.489 582.281 141.042 586.75 141.042C596.582 141.042 604.626 142.511 610.883 145.448C617.268 148.257 622.056 152.662 625.248 158.663C628.44 164.537 630.036 172.134 630.036 181.456V223.976C630.036 228.7 628.887 232.339 626.589 234.893C624.29 237.447 620.97 238.724 616.629 238.724C612.288 238.724 608.904 237.447 606.478 234.893C604.179 232.339 603.03 228.7 603.03 223.976V216.889L604.371 218.038C603.605 222.38 601.945 226.147 599.391 229.339C596.965 232.403 593.837 234.829 590.006 236.617C586.175 238.277 581.77 239.107 576.79 239.107ZM676.341 273.2C673.021 273.2 670.275 272.306 668.105 270.518C665.934 268.73 664.657 266.368 664.274 263.431C663.891 260.622 664.402 257.622 665.806 254.429L678.639 226.083V237.958L644.738 160.196C643.461 156.876 643.014 153.811 643.397 151.002C643.908 148.065 645.312 145.767 647.611 144.107C650.037 142.319 653.357 141.426 657.571 141.426C661.018 141.426 663.763 142.255 665.806 143.915C667.977 145.448 669.956 148.448 671.744 152.917L694.345 210.377H688.216L711.583 152.726C713.37 148.385 715.349 145.448 717.52 143.915C719.818 142.255 722.883 141.426 726.714 141.426C730.033 141.426 732.651 142.319 734.566 144.107C736.609 145.767 737.822 148.001 738.206 150.811C738.716 153.62 738.206 156.684 736.673 160.004L691.663 262.091C689.748 266.432 687.577 269.369 685.151 270.901C682.853 272.433 679.916 273.2 676.341 273.2ZM799.397 239.107C788.288 239.107 778.712 237.128 770.667 233.169C762.751 229.083 756.622 223.401 752.28 216.123C748.066 208.717 745.96 200.034 745.96 190.075C745.96 180.37 748.003 171.879 752.089 164.601C756.175 157.195 761.857 151.449 769.135 147.363C776.541 143.149 784.904 141.042 794.226 141.042C800.993 141.042 807.122 142.192 812.613 144.49C818.103 146.661 822.828 149.853 826.786 154.067C830.744 158.153 833.745 163.196 835.788 169.198C837.831 175.071 838.853 181.647 838.853 188.925C838.853 191.352 838.086 193.203 836.554 194.48C835.022 195.629 832.787 196.204 829.851 196.204H769.71V181.264H817.976L814.911 183.946C814.911 178.71 814.145 174.369 812.613 170.921C811.08 167.346 808.846 164.665 805.909 162.877C803.1 161.089 799.589 160.196 795.375 160.196C790.65 160.196 786.628 161.281 783.308 163.452C779.988 165.622 777.435 168.751 775.647 172.837C773.859 176.923 772.966 181.839 772.966 187.585V189.117C772.966 198.821 775.2 205.972 779.669 210.569C784.266 215.165 791.033 217.464 799.972 217.464C803.036 217.464 806.548 217.081 810.506 216.315C814.464 215.548 818.167 214.335 821.615 212.675C824.552 211.271 827.169 210.824 829.468 211.335C831.766 211.718 833.554 212.739 834.83 214.399C836.107 216.059 836.81 217.974 836.937 220.145C837.193 222.316 836.746 224.487 835.597 226.657C834.447 228.7 832.532 230.424 829.851 231.829C825.509 234.255 820.593 236.042 815.103 237.192C809.74 238.468 804.505 239.107 799.397 239.107ZM870.614 238.724C865.762 238.724 862.059 237.447 859.505 234.893C856.951 232.339 855.674 228.7 855.674 223.976V155.982C855.674 151.258 856.888 147.682 859.314 145.256C861.867 142.702 865.379 141.426 869.848 141.426C874.445 141.426 877.956 142.702 880.382 145.256C882.808 147.682 884.021 151.258 884.021 155.982V165.942H882.106C883.638 158.28 887.022 152.343 892.257 148.129C897.492 143.915 904.26 141.553 912.559 141.042C915.752 140.787 918.178 141.617 919.838 143.532C921.625 145.32 922.583 148.321 922.711 152.534C922.966 156.493 922.136 159.621 920.221 161.919C918.433 164.218 915.369 165.622 911.027 166.133L906.622 166.516C899.344 167.155 893.917 169.262 890.342 172.837C886.894 176.412 885.17 181.583 885.17 188.351V223.976C885.17 228.7 883.894 232.339 881.34 234.893C878.914 237.447 875.338 238.724 870.614 238.724ZM978.125 239.107C968.037 239.107 959.227 237.128 951.693 233.169C944.287 229.211 938.542 223.529 934.456 216.123C930.369 208.717 928.326 199.97 928.326 189.883C928.326 182.35 929.476 175.582 931.774 169.581C934.072 163.579 937.392 158.472 941.734 154.258C946.203 149.917 951.502 146.661 957.631 144.49C963.76 142.192 970.591 141.042 978.125 141.042C988.212 141.042 996.959 143.022 1004.36 146.98C1011.9 150.938 1017.71 156.557 1021.79 163.835C1026.01 171.113 1028.11 179.796 1028.11 189.883C1028.11 197.544 1026.9 204.376 1024.48 210.377C1022.18 216.378 1018.86 221.55 1014.52 225.891C1010.17 230.233 1004.88 233.552 998.619 235.851C992.49 238.022 985.658 239.107 978.125 239.107ZM978.125 217.464C982.339 217.464 985.978 216.442 989.042 214.399C992.107 212.356 994.533 209.356 996.32 205.397C998.108 201.311 999.002 196.14 999.002 189.883C999.002 180.562 997.086 173.731 993.256 169.389C989.425 164.92 984.382 162.686 978.125 162.686C974.039 162.686 970.4 163.643 967.207 165.559C964.143 167.474 961.717 170.475 959.929 174.561C958.269 178.519 957.439 183.626 957.439 189.883C957.439 199.204 959.355 206.163 963.185 210.76C967.016 215.229 971.996 217.464 978.125 217.464Z" fill="#434343"/>
<path d="M5.47431e-05 143.804C0.0261344 109.442 11.788 78.2715 32.1667 50.6793C35.1954 46.5796 38.2641 42.9736 41.3728 39.8615C43.6678 37.5665 45.7368 36.0139 47.5797 35.2036C52.0237 33.2529 57.4222 33.4459 61.4958 36.1321C65.6112 38.8444 68.4278 44.2481 67.2333 49.1145C66.6544 51.4825 65.3504 54.0279 63.9264 56.5211C60.5917 62.3699 57.3822 68.2865 54.2978 74.2709C38.8848 104.221 32.2501 137.483 39.156 170.839C43.0297 189.553 50.4746 206.778 61.4906 222.513C64.2655 226.472 62.4451 230.681 60.1136 234.311C56.4903 239.941 51.9455 245.013 46.4792 249.526C43.1097 252.304 40.0132 252.078 37.1896 248.848C26.4761 236.606 18.5583 222.982 12.3722 208.002C4.10673 187.994 -0.0173317 166.595 5.47431e-05 143.804ZM31.0504 197.106C29.8195 194.383 28.6616 191.269 27.5766 187.764C19.0277 160.156 18.8973 130.431 28.1452 102.87C28.865 100.716 27.6079 98.6658 25.339 98.452C22.898 98.2172 21.7452 100.309 21.135 102.359C11.2491 135.567 12.5565 168.213 25.0574 200.298C26.0223 202.77 26.982 204.236 29.8351 203.506C33.2359 202.635 32.0728 199.359 31.0504 197.106Z" fill="#3EA3FE"/>
<path d="M31.0505 197.106C32.0728 199.359 33.2359 202.635 29.8351 203.506C26.982 204.236 26.0223 202.77 25.0574 200.298C12.5565 168.213 11.2491 135.567 21.135 102.359C21.7453 100.309 22.898 98.2172 25.339 98.4519C27.6079 98.6658 28.865 100.716 28.1452 102.87C18.8973 130.431 19.0277 160.156 27.5767 187.764C28.6616 191.269 29.8195 194.383 31.0505 197.106Z" fill="#FFFEFD"/>
<path d="M61.7546 150.023C61.6677 151.501 61.7842 152.974 62.1041 154.441C63.9662 162.907 67.5808 170.752 70.846 178.732C72.8141 183.548 74.6571 189.334 76.3749 196.09C81.0205 214.343 79.3775 231.946 71.4458 248.902C69.6585 252.723 68.0711 255.839 66.6837 258.249C56.7734 274.491 43.3998 285.497 27.3869 295.391C21.7902 298.849 18.2955 301.374 15.0512 306.204C12.6624 309.754 11.3219 313.718 11.0298 318.096C10.3865 327.749 13.8099 335.502 21.2999 341.354C30.2244 348.328 42.6383 347.921 52.5172 343.373C67.1114 336.649 78.5447 324.705 87.9907 311.999C102.634 292.31 113.043 270.572 119.218 246.784C120.182 243.07 120.98 239.344 121.613 235.606C124.363 220.195 124.144 205.399 120.955 191.219C117.231 174.632 110.656 158.485 101.229 142.779L61.7546 150.023Z" fill="url(#paint0_linear_5_481)"/>
<path d="M317.585 133.186C317.398 142.116 310.403 148.959 301.677 149.147C293.947 149.314 288.423 143.326 286.587 136.311C285.457 131.995 284.249 127.701 282.962 123.427C265.703 65.9636 211.008 26.4947 150.571 32.0601C144.573 32.613 138.034 33.6231 130.954 35.0905C125.676 36.1806 118.89 35.2887 114.962 31.0221C110.456 26.1243 109.658 18.7073 113.043 12.9959C115.854 8.24415 120.856 5.59968 126.192 4.26962C142.243 0.277699 158.515 -0.915009 175.008 0.691495C187.897 1.94853 200.843 4.61909 212.996 9.10478C264.581 28.1638 304.608 70.564 316.657 124.841C317.331 127.877 317.641 130.658 317.585 133.186Z" fill="#0FDFAF"/>
<path d="M101.229 142.779C100.968 151.234 97.5515 159.449 89.4564 162.834C80.485 166.579 70.0949 163.35 64.5034 155.365C64.0131 154.666 63.0969 152.885 61.7546 150.023C60.7393 145.757 60.2612 141.403 60.3203 136.963C60.7688 103.643 81.5386 73.558 110.044 57.3365C129.619 46.19 153.221 42.0121 175.477 44.4949C196.338 46.8247 214.83 54.6381 230.954 67.9352C251.228 84.6523 264.618 109.172 265.374 135.664C266.01 158.089 259.273 177.826 245.162 194.875C231.324 211.587 212.187 221.946 190.698 224.742C187.891 225.107 184.425 225.312 180.297 225.357C174.772 225.42 168.382 225.416 161.128 225.347C157.123 225.31 153.221 224.966 149.601 223.61C135.315 218.263 130.594 200.649 142.455 190.035C146.842 186.107 151.343 185.643 157.712 185.716C164.941 185.796 172.171 185.857 179.4 185.899C183.979 185.923 187.445 185.74 189.795 185.351C213.475 181.429 228.456 157.999 227.178 134.876C225.9 111.765 209.678 92.9612 188.256 85.2208C160.617 75.2375 128.049 82.472 110.649 106.956C103.207 117.422 100.067 129.363 101.229 142.779Z" fill="#0FDFAF"/>
<path d="M64.913 155.078L64.9128 155.077C64.4552 154.425 63.5652 152.704 62.2292 149.858C61.2316 145.648 60.7619 141.352 60.8202 136.969C61.266 103.855 81.9141 73.9196 110.291 57.771L110.291 57.771C129.766 46.6817 153.26 42.5196 175.422 44.9918C196.186 47.3109 214.587 55.0859 230.636 68.321L230.954 67.9352L230.636 68.321C250.812 84.9574 264.122 109.347 264.874 135.678C265.507 157.984 258.809 177.602 244.777 194.556C231.022 211.168 212 221.466 190.633 224.246C187.853 224.607 184.407 224.812 180.291 224.857C174.77 224.92 168.384 224.916 161.133 224.847L161.133 224.847C157.147 224.81 153.315 224.467 149.777 223.141L149.776 223.141C135.791 217.908 131.248 200.736 142.789 190.407L142.789 190.407C147.028 186.612 151.362 186.143 157.706 186.216C164.937 186.296 172.167 186.357 179.397 186.399L179.397 186.399C183.984 186.423 187.483 186.241 189.877 185.844C213.859 181.872 228.966 158.171 227.677 134.849C226.386 111.507 210.007 92.5484 188.426 84.7506L188.256 85.2208L188.426 84.7505C160.613 74.7045 127.793 81.9689 110.241 106.666C102.733 117.227 99.5641 129.277 100.728 142.792C100.464 151.135 97.0955 159.097 89.2638 162.372C80.5184 166.023 70.3755 162.879 64.913 155.078Z" stroke="#CDE0F1" stroke-opacity="0.63"/>
<path d="M208.656 274.554C241.73 262.489 268.587 235.998 282.785 203.972C284.777 199.47 286.785 194.317 289.79 191.141C294.521 186.144 302.334 185.168 308.233 188.783C313.36 191.928 316.292 198.271 315.598 204.18C315.33 206.489 314.654 208.97 313.569 211.623C299.733 245.534 277.496 272.184 246.857 291.573C226.333 304.561 202.955 311.728 178.894 314.153C158.527 316.208 138.307 314.193 118.233 308.108C116.089 307.456 114.055 306.851 112.97 304.843C110.56 300.378 115.776 291.427 117.951 287.411C119.49 284.584 121.993 280.088 124.466 278.299C125.796 277.334 127.402 277.553 129.118 278.007C156.182 285.173 182.695 284.022 208.656 274.554Z" fill="#3EA3FE"/>
<path d="M209.6 238.251C224.469 230.768 237.326 220.238 248.172 206.663C248.912 205.735 250.569 203.358 253.143 199.533C255.777 195.616 261.545 198.339 261.368 202.788C261.326 203.8 260.928 204.883 260.174 206.037C245.131 229.071 220.068 247.154 193.681 254.514C174.128 259.97 154.407 260.472 134.517 256.021C129.854 254.978 128.962 247.483 134.339 247.16C135.379 247.097 136.224 247.135 136.874 247.274C162.516 252.755 186.758 249.747 209.6 238.251Z" fill="#3EA3FE"/>
<path d="M136.487 127.807C134.343 128.678 132.716 131.709 130.588 132.569C128.668 133.341 126.827 132.914 125.367 131.427C122.701 128.715 123.39 124.443 125.377 121.506C129.805 114.966 136.915 112.232 144.619 113.479C150.633 114.454 158.769 119.863 158.702 127.103C158.66 131.839 153.188 135.276 149.699 131.099C146.1 126.783 141.696 125.686 136.487 127.807Z" fill="#3EA3FE"/>
<path d="M197.832 127.76C193.09 125.549 188.099 127.087 184.776 130.994C182.831 133.284 179.43 133.357 177.432 131.25C175.62 129.337 175.248 126.936 176.316 124.047C179.033 116.666 186.31 112.853 194.081 113.265C201.394 113.658 206.652 116.965 209.854 123.186C211.664 126.707 210.642 132.267 206.114 132.83C202.594 133.268 200.784 129.137 197.832 127.76Z" fill="#3EA3FE"/>
<path d="M195.432 152.964C189.034 163.03 180.13 169.307 168.721 171.793C162.118 173.228 153.663 173.238 147.279 171.459C141.573 169.874 136.814 167.686 133.003 164.898C129.362 162.238 130.129 155.3 135.673 155.728C138.516 155.947 140.915 158.795 143.633 159.948C157.711 165.889 173.765 163.98 183.999 151.962C186.117 149.469 190.117 140.534 195.317 146.058C197.108 147.963 197.146 150.265 195.432 152.964Z" fill="#3EA3FE"/>
<defs>
<linearGradient id="paint0_linear_5_481" x1="67.2384" y1="142.779" x2="67.2384" y2="346.705" gradientUnits="userSpaceOnUse">
<stop offset="0.427083" stop-color="#434343"/>
</linearGradient>
</defs>
</svg>
